<svg width="52" height="51" viewBox="0 0 52 51" fill="none" xmlns="http://www.w3.org/2000/svg">
    <path d="M13.25 2.125V6.375H11.125C8.76625 6.375 6.875 8.26625 6.875 10.625V40.375C6.875 42.7125 8.76625 44.625 11.125 44.625H24.0875C26.765 47.26 30.4412 48.875 34.5 48.875C42.7238 48.875 49.375 42.2238 49.375 34C49.375 29.9412 47.76 26.265 45.125 23.5875V10.625C45.125 8.2875 43.2337 6.375 40.875 6.375H38.75V2.125H34.5V6.375H17.5V2.125M11.125 10.625H40.875V14.875H11.125M11.125 19.125H40.875V20.5487C38.9412 19.635 36.7738 19.125 34.5 19.125C26.2763 19.125 19.625 25.7763 19.625 34C19.625 36.2738 20.135 38.4412 21.0487 40.375H11.125M34.5 23.6937C40.195 23.6937 44.8063 28.305 44.8063 34C44.8063 39.695 40.195 44.3063 34.5 44.3063C28.805 44.3063 24.1937 39.695 24.1937 34C24.1937 28.305 28.805 23.6937 34.5 23.6937ZM32.375 27.625V35.4663L39.1538 39.3763L40.7475 36.6138L35.5625 33.6175V27.625H32.375Z" fill="url(#paint0_linear_3174_1419)"/>
    <defs>
        <linearGradient id="paint0_linear_3174_1419" x1="28.125" y1="2.125" x2="28.125" y2="48.875" gradientUnits="userSpaceOnUse">
            <stop stop-color="#B4ACFF"/>
            <stop offset="1" stop-color="#393186"/>
        </linearGradient>
    </defs>
</svg>
