<svg width="64" height="81" viewBox="0 0 64 81" fill="none" xmlns="http://www.w3.org/2000/svg">
<path d="M27.4273 48.791L28.4662 48.0959L27.4273 48.791ZM20.1025 45.017L19.8583 46.2429C19.9387 46.2589 20.0205 46.267 20.1025 46.267V45.017ZM11.3062 47.9385L12.1884 48.824L11.3062 47.9385ZM9.35142 57.6766L10.5638 57.3724C10.556 57.3413 10.547 57.3105 10.5368 57.28L9.35142 57.6766ZM29.382 54.6339L28.1339 54.7024V54.7024L29.382 54.6339ZM31.3968 70.61L30.9696 71.7847C31.3622 71.9275 31.8002 71.8647 32.1368 71.6174L31.3968 70.61ZM24.2857 65.61L23.2585 64.8977C22.9552 65.3352 22.9622 65.9168 23.2759 66.3468L24.2857 65.61ZM31.3968 58.61L31.8042 57.4282C31.4072 57.2914 30.968 57.363 30.6351 57.6189L31.3968 58.61ZM11.4286 41.4671L11.1574 40.2469L10.9727 40.288L10.8084 40.3818L11.4286 41.4671ZM55.76 41.2386L56.3304 40.1263L56.1754 40.0468L56.0045 40.0127L55.76 41.2386ZM62 62.0386V63.2886H63.25V62.0386H62ZM46.8457 62.0386H45.5957V63.2886H46.8457V62.0386ZM33.7143 42.3243V43.5743H33.8177L33.9198 43.5573L33.7143 42.3243ZM21.7143 23.4671H20.4643C20.4643 23.5421 20.471 23.617 20.4844 23.6908L21.7143 23.4671ZM33.7143 33.7529L33.6105 34.9985C33.7198 35.0077 33.8299 35.0023 33.9379 34.9827L33.7143 33.7529ZM44 24.3243L45.1973 24.6835C45.2322 24.5669 45.25 24.4459 45.25 24.3243H44ZM20 12.3243V11.0743C19.3096 11.0743 18.75 11.6339 18.75 12.3243H20ZM20 17.4671H18.75C18.75 18.1575 19.3096 18.7171 20 18.7171V17.4671ZM45.7143 17.4671V18.7171C46.4046 18.7171 46.9643 18.1575 46.9643 17.4671H45.7143ZM45.7143 12.3243H46.9643C46.9643 11.6339 46.4046 11.0743 45.7143 11.0743V12.3243ZM57.2468 78.2656L57.8161 79.3784L57.8862 79.3426L57.9512 79.2982L57.2468 78.2656ZM49.1429 78.2656L48.3956 79.2677L48.4799 79.3305L48.5735 79.3784L49.1429 78.2656ZM6.28571 73.1814H5.03571C5.03571 73.6157 5.26112 74.0189 5.63108 74.2463L6.28571 73.1814ZM28.4662 48.0959C26.1984 44.7065 22.3039 43.767 20.1025 43.767V46.267C21.8107 46.267 24.7467 47.0325 26.3884 49.4861L28.4662 48.0959ZM20.3468 43.7911C18.4266 43.4085 13.9226 43.567 10.4239 47.053L12.1884 48.824C14.945 46.0775 18.5206 45.9764 19.8583 46.2429L20.3468 43.7911ZM10.4239 47.053C8.60138 48.8689 7.86708 51.1179 7.66774 53.122C7.46976 55.1125 7.78863 56.9452 8.166 58.0732L10.5368 57.28C10.2626 56.4604 9.99507 54.9821 10.1555 53.3695C10.3145 51.7705 10.8834 50.1243 12.1884 48.824L10.4239 47.053ZM8.13902 57.9809C8.52724 59.5279 10.1404 62.8745 13.681 64.6384L14.7958 62.4007C12.0813 61.0484 10.8273 58.4222 10.5638 57.3724L8.13902 57.9809ZM13.681 64.6384C16.888 66.236 19.1747 66.7171 20.1027 66.7171V64.2171C19.7275 64.2171 17.8441 63.9193 14.7958 62.4007L13.681 64.6384ZM20.1027 66.7171C20.801 66.7171 21.8921 66.6659 22.9294 66.5082C23.4473 66.4295 23.9845 66.3195 24.466 66.1629C24.9141 66.0171 25.4644 65.7848 25.8718 65.3788L24.1073 63.6078C24.1238 63.5914 24.0307 63.6755 23.6928 63.7854C23.3883 63.8845 22.997 63.9692 22.5538 64.0366C21.669 64.171 20.7075 64.2171 20.1027 64.2171V66.7171ZM30.632 60.4768C30.632 59.5926 30.7372 56.5135 30.6301 54.5653L28.1339 54.7024C28.2364 56.5679 28.132 59.4133 28.132 60.4768H30.632ZM30.6301 54.5653C30.5711 53.4898 30.2299 52.1858 29.8331 51.0488C29.4371 49.9137 28.932 48.7921 28.4662 48.0959L26.3884 49.4861C26.684 49.9279 27.1065 50.8229 27.4727 51.8723C27.8381 52.9197 28.0936 53.9682 28.1339 54.7024L30.6301 54.5653ZM36.2857 66.3243C35.3786 65.4643 35.3786 65.4642 35.3787 65.4642C35.3787 65.4641 35.3788 65.4641 35.3788 65.4641C35.3788 65.464 35.3788 65.464 35.3788 65.464C35.3788 65.4641 35.3786 65.4643 35.3783 65.4646C35.3777 65.4653 35.3765 65.4665 35.3749 65.4682C35.3716 65.4717 35.3662 65.4773 35.3588 65.4849C35.3441 65.5003 35.3214 65.5239 35.291 65.5551C35.2303 65.6176 35.1391 65.7105 35.0207 65.8288C34.7838 66.0656 34.4383 66.4037 34.0094 66.8031C33.1491 67.6044 31.9653 68.6414 30.6568 69.6026L32.1368 71.6174C33.5487 70.5803 34.8093 69.4745 35.7133 68.6325C36.1666 68.2103 36.5333 67.8516 36.788 67.5971C36.9154 67.4697 37.0149 67.3683 37.0834 67.2979C37.1177 67.2626 37.1442 67.2351 37.1626 67.216C37.1717 67.2064 37.1789 67.1989 37.184 67.1936C37.1865 67.191 37.1885 67.1889 37.19 67.1873C37.1907 67.1865 37.1913 67.1859 37.1918 67.1854C37.1921 67.1851 37.1923 67.1849 37.1924 67.1847C37.1925 67.1846 37.1926 67.1845 37.1927 67.1845C37.1928 67.1844 37.1929 67.1843 36.2857 66.3243ZM31.824 69.4353C30.1176 68.8147 28.956 68.2898 27.993 67.6292C27.0461 66.9797 26.2333 66.1586 25.2955 64.8732L23.2759 66.3468C24.3296 67.7909 25.3361 68.8383 26.5788 69.6908C27.8053 70.5321 29.2035 71.1425 30.9696 71.7847L31.824 69.4353ZM25.3129 66.3223C27.4429 63.2503 29.0519 61.9889 32.1586 59.6011L30.6351 57.6189C27.4898 60.0364 25.6202 61.4916 23.2585 64.8977L25.3129 66.3223ZM30.9895 59.7918C38.4073 62.3485 42.3482 63.9705 50.3567 67.4697L51.3576 65.1789C43.3139 61.6643 39.307 60.0143 31.8042 57.4282L30.9895 59.7918ZM9.20666 57.1457H5.38839V59.6457H9.20666V57.1457ZM11.9998 60.5743H4.57143V63.0743H11.9998V60.5743ZM46.5714 59.86H62V57.36H46.5714V59.86ZM26.586 36.8183L11.1574 40.2469L11.6997 42.6874L27.1283 39.2588L26.586 36.8183ZM10.8084 40.3818C8.59327 41.6476 4.17857 45.6486 4.17857 51.7529H6.67857C6.67857 46.8857 10.2639 43.5724 12.0487 42.5524L10.8084 40.3818ZM4.17857 51.7529V63.1441H6.67857V51.7529H4.17857ZM39.4698 39.2644L55.5155 42.4644L56.0045 40.0127L39.9588 36.8127L39.4698 39.2644ZM55.1896 42.3508C56.0829 42.809 57.5011 43.8194 58.6835 45.299C59.8571 46.7674 60.75 48.6338 60.75 50.8386H63.25C63.25 47.9233 62.0629 45.5231 60.6365 43.7382C59.2189 41.9644 57.5171 40.7349 56.3304 40.1263L55.1896 42.3508ZM60.75 50.8386V62.0386H63.25V50.8386H60.75ZM62 60.7886H46.8457V63.2886H62V60.7886ZM48.0957 62.0386V50.8386H45.5957V62.0386H48.0957ZM25.6071 31.1814V38.0386H28.1071V31.1814H25.6071ZM25.6965 38.5028C26.3994 40.2599 28.9479 43.5743 33.7143 43.5743V41.0743C30.2521 41.0743 28.4578 38.6744 28.0177 37.5743L25.6965 38.5028ZM33.9198 43.5573C34.897 43.3944 36.3731 42.9659 37.725 42.1854C39.0616 41.4137 40.4665 40.1837 40.927 38.3417L38.5016 37.7354C38.2764 38.6363 37.5384 39.4063 36.475 40.0203C35.4269 40.6255 34.2458 40.9685 33.5088 41.0913L33.9198 43.5573ZM40.9643 38.0386V31.1814H38.4643V38.0386H40.9643ZM45.25 12.3243C45.25 10.3886 44.6319 7.53062 42.7571 5.12693C40.8377 2.66625 37.6811 0.788574 32.8571 0.788574V3.28857C36.9474 3.28857 39.3623 4.83946 40.7858 6.66451C42.2538 8.54653 42.75 10.8314 42.75 12.3243H45.25ZM32.8571 0.788574C28.0332 0.788574 24.8766 2.66625 22.9572 5.12693C21.0824 7.53062 20.4643 10.3886 20.4643 12.3243H22.9643C22.9643 10.8314 23.4605 8.54653 24.9285 6.66451C26.352 4.83946 28.7668 3.28857 32.8571 3.28857V0.788574ZM20.4643 17.4671V23.4671H22.9643V17.4671H20.4643ZM20.4844 23.6908C21.1185 27.1778 24.6295 34.2501 33.6105 34.9985L33.8181 32.5072C26.3419 31.8842 23.453 26.0422 22.9441 23.2435L20.4844 23.6908ZM33.9379 34.9827C37.357 34.361 42.9582 32.1471 45.1973 24.6835L42.8027 23.9651C40.9275 30.2157 36.3573 32.0018 33.4907 32.523L33.9379 34.9827ZM45.25 24.3243V17.4671H42.75V24.3243H45.25ZM37.1429 11.0743H20V13.5743H37.1429V11.0743ZM18.75 12.3243V17.4671H21.25V12.3243H18.75ZM20 18.7171H21.7143V16.2171H20V18.7171ZM21.7143 18.7171H44V16.2171H21.7143V18.7171ZM44 18.7171H45.7143V16.2171H44V18.7171ZM46.9643 17.4671V12.3243H44.4643V17.4671H46.9643ZM45.7143 11.0743H40.5714V13.5743H45.7143V11.0743ZM32.8929 44.8957V47.4671H35.3929V44.8957H32.8929ZM32.8929 48.3243V50.8957H35.3929V48.3243H32.8929ZM59.0357 62.8957V73.0825H61.5357V62.8957H59.0357ZM59.0357 73.0825C59.0357 73.7888 58.5689 75.8504 56.5423 77.233L57.9512 79.2982C60.7869 77.3636 61.5357 74.4495 61.5357 73.0825H59.0357ZM56.6774 77.1528C55.5347 77.7375 52.4691 78.5635 49.7122 77.1528L48.5735 79.3784C52.2997 81.285 56.2575 80.1759 57.8161 79.3784L56.6774 77.1528ZM49.8901 77.2636L36.1758 67.0365L34.6813 69.0406L48.3956 79.2677L49.8901 77.2636ZM28.5447 54.2975L18.259 64.5833L20.0267 66.351L30.3125 56.0653L28.5447 54.2975ZM13.1061 63.7483L13.1648 79.9661L15.6648 79.9571L15.6061 63.7392L13.1061 63.7483ZM11.0357 32.8957C11.0357 35.0457 9.29282 36.7886 7.14286 36.7886V39.2886C10.6735 39.2886 13.5357 36.4264 13.5357 32.8957H11.0357ZM7.14286 36.7886C4.99289 36.7886 3.25 35.0457 3.25 32.8957H0.75C0.75 36.4264 3.61218 39.2886 7.14286 39.2886V36.7886ZM3.25 32.8957C3.25 30.7458 4.99289 29.0029 7.14286 29.0029V26.5029C3.61218 26.5029 0.75 29.365 0.75 32.8957H3.25ZM7.14286 29.0029C9.29282 29.0029 11.0357 30.7458 11.0357 32.8957H13.5357C13.5357 29.365 10.6735 26.5029 7.14286 26.5029V29.0029ZM13.1592 80.4314L51.8748 80.3544L51.8699 77.8544L13.1543 77.9314L13.1592 80.4314ZM47.8929 62.0386V63.7529H50.3929V62.0386H47.8929ZM5.03571 62.0386V73.1814H7.53571V62.0386H5.03571ZM5.63108 74.2463L14.3454 79.6034L15.6546 77.4737L6.94035 72.1166L5.63108 74.2463Z" fill="url(#paint0_linear_4009_11111)"/>
<path d="M3.71416 26.0386V24.3243" stroke="url(#paint1_linear_4009_11111)" stroke-linecap="round"/>
<path d="M3.71411 22.8958L3.71411 16.0386" stroke="url(#paint2_linear_4009_11111)" stroke-linecap="round"/>
<path d="M7.14278 24.3242V22.6099" stroke="url(#paint3_linear_4009_11111)" stroke-linecap="round"/>
<path d="M7.14282 21.1814V14.3243" stroke="url(#paint4_linear_4009_11111)" stroke-linecap="round"/>
<path d="M10.5714 26.0386V24.3243" stroke="url(#paint5_linear_4009_11111)" stroke-linecap="round"/>
<path d="M10.5713 22.8958V16.0386" stroke="url(#paint6_linear_4009_11111)" stroke-linecap="round"/>
<defs>
<linearGradient id="paint0_linear_4009_11111" x1="32" y1="2.03857" x2="32" y2="79.9616" gradientUnits="userSpaceOnUse">
<stop stop-color="#B4ACFF"/>
<stop offset="1" stop-color="#393186"/>
</linearGradient>
<linearGradient id="paint1_linear_4009_11111" x1="3.71416" y1="25.1814" x2="4.71416" y2="25.1814" gradientUnits="userSpaceOnUse">
<stop stop-color="#B4ACFF"/>
<stop offset="1" stop-color="#393186"/>
</linearGradient>
<linearGradient id="paint2_linear_4009_11111" x1="3.71411" y1="19.4672" x2="4.71411" y2="19.4672" gradientUnits="userSpaceOnUse">
<stop stop-color="#B4ACFF"/>
<stop offset="1" stop-color="#393186"/>
</linearGradient>
<linearGradient id="paint3_linear_4009_11111" x1="7.14278" y1="23.4671" x2="8.14278" y2="23.4671" gradientUnits="userSpaceOnUse">
<stop stop-color="#B4ACFF"/>
<stop offset="1" stop-color="#393186"/>
</linearGradient>
<linearGradient id="paint4_linear_4009_11111" x1="7.14282" y1="17.7528" x2="8.14282" y2="17.7528" gradientUnits="userSpaceOnUse">
<stop stop-color="#B4ACFF"/>
<stop offset="1" stop-color="#393186"/>
</linearGradient>
<linearGradient id="paint5_linear_4009_11111" x1="10.5714" y1="25.1814" x2="11.5714" y2="25.1814" gradientUnits="userSpaceOnUse">
<stop stop-color="#B4ACFF"/>
<stop offset="1" stop-color="#393186"/>
</linearGradient>
<linearGradient id="paint6_linear_4009_11111" x1="10.5713" y1="19.4672" x2="11.5713" y2="19.4672" gradientUnits="userSpaceOnUse">
<stop stop-color="#B4ACFF"/>
<stop offset="1" stop-color="#393186"/>
</linearGradient>
</defs>
</svg>
