<svg width="45" height="43" viewBox="0 0 45 43" fill="none" xmlns="http://www.w3.org/2000/svg">
    <path d="M40 32.125C42.3375 32.125 44.25 30.2125 44.25 27.875V4.5C44.25 2.1625 42.3375 0.25 40 0.25H17.6875C18.325 1.525 18.75 3.0125 18.75 4.5H40V27.875H20.875V32.125M29.375 10.875V15.125H16.625V42.75H12.375V30H8.125V42.75H3.875V25.75H0.6875V15.125C0.6875 12.7875 2.6 10.875 4.9375 10.875H29.375ZM14.5 4.5C14.5 6.8375 12.5875 8.75 10.25 8.75C7.9125 8.75 6 6.8375 6 4.5C6 2.1625 7.9125 0.25 10.25 0.25C12.5875 0.25 14.5 2.1625 14.5 4.5ZM33.625 8.75H37.875V25.75H33.625V8.75ZM27.25 17.25H31.5V25.75H27.25V17.25ZM20.875 17.25H25.125V25.75H20.875V17.25Z" fill="url(#paint0_linear_3174_1414)"/>
    <defs>
        <linearGradient id="paint0_linear_3174_1414" x1="22.4688" y1="0.25" x2="22.4688" y2="42.75" gradientUnits="userSpaceOnUse">
            <stop stop-color="#B4ACFF"/>
            <stop offset="1" stop-color="#393186"/>
        </linearGradient>
    </defs>
</svg>
