<svg width="52" height="51" viewBox="0 0 52 51" fill="none" xmlns="http://www.w3.org/2000/svg">
    <g clip-path="url(#clip0_3174_1434)">
        <path d="M28.125 23.375C29.3859 23.375 30.6184 23.0011 31.6668 22.3006C32.7151 21.6001 33.5322 20.6045 34.0147 19.4396C34.4972 18.2747 34.6235 16.9929 34.3775 15.7563C34.1315 14.5197 33.5244 13.3838 32.6328 12.4922C31.7412 11.6006 30.6053 10.9935 29.3687 10.7475C28.1321 10.5015 26.8503 10.6278 25.6854 11.1103C24.5205 11.5928 23.5249 12.4099 22.8244 13.4582C22.1239 14.5066 21.75 15.7391 21.75 17C21.75 18.6908 22.4216 20.3123 23.6172 21.5078C24.8127 22.7034 26.4342 23.375 28.125 23.375ZM28.125 14.875C28.5453 14.875 28.9561 14.9996 29.3056 15.2331C29.655 15.4666 29.9274 15.7985 30.0882 16.1868C30.2491 16.5751 30.2912 17.0024 30.2092 17.4146C30.1272 17.8268 29.9248 18.2054 29.6276 18.5026C29.3304 18.7998 28.9518 19.0022 28.5396 19.0842C28.1274 19.1662 27.7001 19.1241 27.3118 18.9632C26.9235 18.8024 26.5916 18.53 26.3581 18.1806C26.1246 17.8311 26 17.4203 26 17C26 16.4364 26.2239 15.8959 26.6224 15.4974C27.0209 15.0989 27.5614 14.875 28.125 14.875ZM36.8587 23.0775C38.102 21.2947 38.7686 19.1735 38.7686 17C38.7686 14.8265 38.102 12.7053 36.8587 10.9225C37.4699 10.7258 38.108 10.6254 38.75 10.625C40.4408 10.625 42.0623 11.2967 43.2578 12.4922C44.4534 13.6877 45.125 15.3092 45.125 17C45.125 18.6908 44.4534 20.3123 43.2578 21.5078C42.0623 22.7034 40.4408 23.375 38.75 23.375C38.108 23.3746 37.4699 23.2742 36.8587 23.0775ZM28.125 27.625C15.375 27.625 15.375 36.125 15.375 36.125V40.375H40.875V36.125C40.875 36.125 40.875 27.625 28.125 27.625ZM19.625 36.125C19.625 35.5088 20.305 31.875 28.125 31.875C35.5625 31.875 36.4975 35.19 36.625 36.125M51.5 36.125V40.375H45.125V36.125C45.0753 34.5454 44.7115 32.9914 44.0548 31.5539C43.3981 30.1164 42.4616 28.8241 41.3 27.7525C51.5 28.7938 51.5 36.125 51.5 36.125ZM17.5 25.5H11.125V31.875H6.875V25.5H0.5V21.25H6.875V14.875H11.125V21.25H17.5V25.5Z" fill="url(#paint0_linear_3174_1434)"/>
    </g>
    <defs>
        <linearGradient id="paint0_linear_3174_1434" x1="26" y1="10.625" x2="26" y2="40.375" gradientUnits="userSpaceOnUse">
            <stop stop-color="#B4ACFF"/>
            <stop offset="1" stop-color="#393186"/>
        </linearGradient>
        <clipPath id="clip0_3174_1434">
            <rect width="51" height="51" fill="white" transform="translate(0.5)"/>
        </clipPath>
    </defs>
</svg>
