<svg width="39" height="38" viewBox="0 0 39 38" fill="none" xmlns="http://www.w3.org/2000/svg">
<path d="M34.6667 28.1667C36.6833 28.1667 38.3333 26.5167 38.3333 24.5001V4.33341C38.3333 2.31675 36.6833 0.666748 34.6667 0.666748H15.4167C15.9667 1.76675 16.3333 3.05008 16.3333 4.33341H34.6667V24.5001H18.1667V28.1667M25.5 9.83341V13.5001H14.5V37.3334H10.8333V26.3334H7.16667V37.3334H3.5V22.6667H0.75V13.5001C0.75 11.4834 2.4 9.83341 4.41667 9.83341H25.5ZM12.6667 4.33341C12.6667 6.35008 11.0167 8.00008 9 8.00008C6.98333 8.00008 5.33333 6.35008 5.33333 4.33341C5.33333 2.31675 6.98333 0.666748 9 0.666748C11.0167 0.666748 12.6667 2.31675 12.6667 4.33341ZM29.1667 8.00008H32.8333V22.6667H29.1667V8.00008ZM23.6667 15.3334H27.3333V22.6667H23.6667V15.3334ZM18.1667 15.3334H21.8333V22.6667H18.1667V15.3334Z" fill="url(#paint0_linear_3047_7541)"/>
<defs>
<linearGradient id="paint0_linear_3047_7541" x1="19.5417" y1="0.666748" x2="19.5417" y2="37.3334" gradientUnits="userSpaceOnUse">
<stop stop-color="#EB9492"/>
<stop offset="1" stop-color="#43A2D8"/>
</linearGradient>
</defs>
</svg>
