<svg width="68" height="74" viewBox="0 0 68 74" fill="none" xmlns="http://www.w3.org/2000/svg">
<path d="M20.708 43.4085C20.3798 46.0376 22.48 53.0704 29.5692 56.2254M48.2769 42.4225C48.6051 45.0516 45.5201 54.0563 38.4309 57.2113M16.7692 68.0563H2M51.2308 68.0563H66M26.6154 41.4366L8.89231 45.3803C6.5 46 2 50.9014 2 57.2113V72H16.7692V57.2113M26.6154 41.4366V33.5493M26.6154 41.4366C27.2718 43.0798 29.7662 46.3662 34.4923 46.3662C36.4615 46.0376 40.5969 44.5915 41.3846 41.4366M41.3846 41.4366L59.1077 45.3803C62 46.5 66 50.9014 66 57.2113V72H51.2308M41.3846 41.4366V33.5493M51.2308 72V57.2113M51.2308 72H17.7538M20.7077 13.831H46.3077M20.7077 13.831C20.7077 9.88732 23.2677 2 33.5077 2C43.7477 2 46.3077 9.88732 46.3077 13.831M20.7077 13.831V24.6761C21.3641 28.2911 25.04 35.7183 34.4923 36.507C38.1026 35.8498 43.9446 33.5493 46.3077 25.662V13.831M34 58.1972V61.1549M29.3638 68.0563V57.2113C30.3484 55.5681 33.3023 52.8732 37.2408 55.2394C38.8818 56.554 41.1792 59.9718 37.2408 63.1268L34.287 64.1127V68.0564L29.3638 68.0563ZM20.7077 14.8169C21.6923 16.7887 25.2369 20.7324 31.5385 20.7324H37.4462C39.7436 20.4038 44.7323 18.7606 46.3077 14.8169H20.7077Z" stroke="url(#paint0_linear_4009_11108)" stroke-width="2.5"/>
<defs>
<linearGradient id="paint0_linear_4009_11108" x1="34" y1="2" x2="34" y2="72" gradientUnits="userSpaceOnUse">
<stop stop-color="#B4ACFF"/>
<stop offset="1" stop-color="#393186"/>
</linearGradient>
</defs>
</svg>
